<svg id="Layer_1" data-name="Layer 1" xmlns="http://www.w3.org/2000/svg" viewBox="0 0 999.7 999.76"><defs><style>.cls-1{opacity:0.25;}.cls-2{fill:none;stroke:#fff;stroke-linecap:round;stroke-linejoin:round;}</style></defs><title>topograph3</title><g class="cls-1"><path class="cls-2" d="M866.47,1.24c.67,11.33,1.14,22.67,2,34,1.37,17.09,4.62,33.66,18,45.93,11.36,10.41,22.72,20.91,36.93,27.57,9.07,4.25,18.75,6.14,28.48,8.08a25.91,25.91,0,0,1,9.93,4c8.24,6,5.87,14.82,5,22.87-1,8.5-6.53,15.17-10.35,22.52-2.82,5.42-5.83,10.81-7.93,16.52-3.53,9.57.65,18.5,3.44,27.44a62.76,62.76,0,0,0,3.47,8c5.5,11.55,2.34,22.69-2.12,33.46-4.35,10.52-9.33,20.82-14.44,31-9.33,18.59-16,38.16-21.88,58-1.81,6.13-5.18,10.89-9.42,15.6-6.56,7.29-19.15,6.59-25.06-.18-6.47-7.4-12-15.61-18.65-22.86-11.1-12.16-15.54-26.88-18.57-42.53-1.53-7.93-4.64-15.65-11.86-20.49-10.24-6.86-20.9-6.08-29.41,3.52-5.49,6.2-9.94,13.38-15.72,19.28a40.8,40.8,0,0,1-13.39,8.52c-11.5,4.76-21,11.49-28.07,22-3.9,5.84-9,10.91-14,16-1.55,1.6-4.19,2.23-6.42,3.06-3.45,1.29-7,2.38-10.48,3.53-11.82,3.89-18.14,12.62-22.08,24-4.34,12.47-11.73,22.12-24.81,27.26a55.65,55.65,0,0,0-20.62,14.74c-6.39,7.08-14.13,12.4-22.43,17.08a41.33,41.33,0,0,0-20,24.93,62.84,62.84,0,0,1-2,6c-2.62,6.34-7.36,9.86-14,9.42-10.35-.69-20.67-1.84-31-2.95-4.19-.45-8.36-1.16-12.49-2-9.93-2-15.43-9.06-17.77-18-1.66-6.37-1.27-13.26.2-20s2.61-13.62,3.5-20.48c.82-6.32-4.46-12.88-12.45-15.44-7.58-2.42-15.32-4.35-23-6.56-8.51-2.46-16.89-5.58-25.54-7.25-4.51-.87-8.1-2.21-11.52-5.15-2.93-2.52-3.91-5.68-4.39-9.09-1.14-8.14-2-16.33-3.06-24.48-1.26-9.51-2-19.15-4.12-28.46-4-17.45-8.22-34.89-13.51-52-7.44-24.07-22.67-41.45-47.37-48.92-10.11-3-20.58-5-31-7-6.22-1.2-10.06,3.68-14.49,6.89a106.48,106.48,0,0,1-11,7.45c-5.58,3.05-9.09,2.25-12.94-2.44-4.93-6-4.72-21.81-.07-28,3.84-5.12,9.66-5.11,16.53-1.92,3.1,1.44,5.95,3.42,9,4.93,4.49,2.22,7.05,1.2,9.48-3.47,4.08-7.85,2.62-13.82-5-19-7.13-4.78-14.85-7.24-23.47-4.53-10.82,3.4-22.49,4.8-31.9,11.62-5.68,4.12-11.36,8.87-15.38,14.52-6.91,9.68-3.94,16.92,4.31,22.82,9.56,6.84,20.73,9.66,32,11.94,6.32,1.28,12.46,6.06,13.92,12.59,2,9,1.76,17.84-1.92,26.49-3.45,8.11-7.25,16.14-9.87,24.53-3,9.68-2.41,19.9-2.09,29.94.27,8.39-3,14.86-10.11,18.89-6.19,3.52-10.86,8.11-11.8,15.12-1,7.49-.61,15.35,3.48,21.9,7.56,12.1,15.45,24,24,35.46,6.92,9.25,17.43,14.29,27.42,19.48a65.28,65.28,0,0,1,23.19,19.78c14.8,20.7,46.64,17.75,58.06-6.25,4.52-9.51,7.15-19.92,10.67-29.91,2.24-6.34,2.44-13.53,8-18.52,3.82-3.45,7.15-3.48,11,0,6.57,5.89,12.33,12.25,13.48,21.51a38.17,38.17,0,0,1,.48,4.5c.06,6,.22,12,0,18-.56,14.28.71,28.25,5,42a97.55,97.55,0,0,1,2.12,49c-3.84,18.92-1.81,37.47,3.3,56a71,71,0,0,0,16.79,29.83c7,7.58,15.38,13.93,22.8,21.18a188.53,188.53,0,0,1,15.48,17c8.61,10.76,18.89,17.92,33,19.68,6.18.77,12.34,3.49,18,6.38,12.54,6.44,24.86,5.53,37-.2,10-4.71,19.92-9,31-10.52,8.64-1.16,13.31-7.21,13.41-16.89.06-5.33-.86-10.67-1.41-16-.44-4.34-1.28-8.66-1.42-13-.24-7.26,2.62-11.37,9.45-13.45,9.43-2.87,18.83-5.62,27-11.52,17.43-12.58,35.09-24.86,52.4-37.6a138.08,138.08,0,0,0,17-15c17.88-18.39,39.1-32.38,60.65-45.74,13.4-8.31,27.85-14.91,41.91-22.13a68.87,68.87,0,0,1,9.47-3.53c12.76-4.3,20.37-13.28,24-26,.82-2.88,2.06-5.65,3-8.51,2.9-9.26,6.38-9.62,15-7.9,9.45,1.89,18.73,5.08,28.5,4.33,13.63-1,18.33-4.93,22.48-15.93a71.43,71.43,0,0,0,2.49-7.49c2.54-9.74,8.64-16.12,18-19.49" transform="translate(1.26 -0.74)"/><path class="cls-2" d="M856.48,1.24c0,7.16-.55,14.38.11,21.48,1.26,13.37,2.41,26.83,5.09,40,3.18,15.57,14.18,25.93,26.16,35.69,12.69,10.35,26.4,19.08,40.16,27.77,13.36,8.43,15.11,20.91,8.94,34.05-2.12,4.52-4,9.19-6.55,13.47-5.5,9.26-5.34,18.32-1.08,28.09,3.36,7.69,5.7,15.86,8.09,23.94,4.17,14,2.44,28-3.63,40.89-6.59,14-12.47,28.51-21.89,41a38.29,38.29,0,0,1-9.51,9.41c-7.25,4.61-16,3.08-22.91-2.84a56,56,0,0,1-17-26c-1.71-5.38-3.43-10.76-5.52-16-4.92-12.34-13.69-20.26-26.94-23-12.82-2.68-25.86-3.27-37.9,1.76-17,7.1-32.15,5.28-46.61-5.69a39.19,39.19,0,0,0-5.47-3c-9.18-4.92-21.86,1.93-22.37,14.49a88.61,88.61,0,0,0,1.45,17.48c2.39,14.94-1.66,27.95-11.08,39.5-4,4.86-7.89,9.75-12,14.48-7.81,9-11.82,19.77-14.35,31-2.79,12.47-9.53,21.41-21.14,26.39-11,4.72-19.11,13.08-28,20.53-3.18,2.68-6.34,5.66-10,7.42-12.23,5.82-22,14.59-31.52,24s-21.36,11.44-34.42,9.2c-10.35-1.77-14.49-11-12.55-20.62,1.78-8.83,6-16.43,10.5-24,2-3.44,4.26-7.16,4.88-11,1.24-7.6-2.91-13.93-10.85-16.32a125,125,0,0,0-21-4.07c-16.6-2-32-7.09-45.41-17.17-7.4-5.58-11-13.86-12.54-22.9-1.42-8.27-2.22-16.52-1.15-25,1.25-9.91-2.53-18.67-8.41-26.45-7.23-9.57-11.94-20.33-16-31.5a218.81,218.81,0,0,1-10.46-38c-1.51-8.8-6.24-14.56-15-17.61-11.2-3.92-18.8-12.06-23.53-22.88-3.9-8.92-10-15.4-19.48-18.53-10.06-3.31-19.87-7.45-30-10.34-16.8-4.78-32.81-2-47.4,7.47a181.61,181.61,0,0,0-18,13.95c-8.48,7.16-16.31,15.13-25.12,21.83-13.57,10.32-11.42,22.33,1.18,33.5,7.81,6.92,16.59,12.75,24.89,19.11,5.37,4.12,10.74,8.25,16,12.51,7.27,5.91,8,13.69,5.44,21.95-2.15,6.94-4.66,13.8-7.49,20.49-3.07,7.23-9.29,11.92-14.91,17a79.38,79.38,0,0,0-8,8c-4.39,5.37-2.7,11.56-1.49,17.44,2.65,12.87,5.69,25.66,8.42,38.51,2.86,13.45,10.26,24.55,18,35.48,8.91,12.53,22.23,19,35.48,25.48,11.88,5.83,21.33,13.67,25.62,27,3.21,10,12,12.91,21.37,13.45,16,.91,31.85-.37,47-6.42,2-.8,4-1.59,6-2.51,8.5-4,14.27-2.43,18.41,6.06a133.63,133.63,0,0,1,11.77,38.41c1.65,10.66-.9,20.59-3.34,30.48a91.15,91.15,0,0,0,.79,47.49,41,41,0,0,0,6.47,13c9.12,12.32,20.6,22.37,32.39,32.06C512,642.7,524.24,654,531.64,669.5a65.92,65.92,0,0,0,6.46,10c5.15,7.08,12.58,10.1,21,9.9a69.88,69.88,0,0,1,29,5.55,110.16,110.16,0,0,0,13,4c6.15,1.71,11.74-1,17.49-2.47,5.49-1.37,11-2.91,16.5-4,12.81-2.41,20.34,5,21.28,15.47s.22,21,.2,31.47a57.68,57.68,0,0,1-8.59,29.93c-3.8,6.32-7.87,12.75-13,17.92C623,799.28,614.44,813.61,604.59,827c-7,9.53-13.51,19.44-20.58,28.93s-16.68,15.2-28.94,15.54c-9.67.28-19.34,1.08-29,.9-17-.33-32.84,4.26-48.49,10.08-3.31,1.23-7,1.78-9.93,3.61-10.48,6.56-12,14.09-4.39,25.27,4.74,7,11.48,12.52,16.74,19.18,7.31,9.24,8.21,25.29.11,34.45-4.68,5.28-10.78,8.17-17,11-11.55,5.24-21.35,12.53-27.51,24" transform="translate(1.26 -0.74)"/><path class="cls-2" d="M280.65,1.24c-4.1,16.3-12.33,30.51-21.31,44.6C248,63.62,235.28,80,219.69,94.23c-9.05,8.23-13.67,19-17.13,30.44a64.92,64.92,0,0,1-6.51,14.45c-2.17,3.62-5.77,4.7-10.4,3.7a32.84,32.84,0,0,1-22.89-17.16c-3.2-5.88-1.77-12.34-.48-18.44,1.51-7.15,3.25-14.08,1.47-21.53C160.09,70.34,143.59,54,128.19,54.6c-14.15.6-19,9.2-20.42,20.62-1.2,9.77,1.74,19.14,4,28.46,3.33,13.66,4.16,27.24,1,41-3,12.8-6.09,25.58-8.38,38.51a86.88,86.88,0,0,0-1,24c1.21,12.25,2.44,24.75-2,37-3.4,9.3-9.28,16.3-16.64,22.43-6.53,5.45-13.41,10.41-18.57,17.44-9.25,12.59-9.37,26.63-5.66,40.48,3.62,13.49,9.05,26.53,14.33,39.52,5.75,14.16,12.4,28,18.35,42,5.58,13.24,15.73,21.19,29.07,24.85a237.2,237.2,0,0,1,47,19c12.32,6.44,25.6,6.55,38.92,2.65,8.81-2.57,17.55-5.55,26.52-7.32,6-1.17,12.3-.71,18.46-.63,5.33.06,10.67.55,16,.95,14,1.06,26.88,5.49,39,12.44a27.13,27.13,0,0,0,15,3.67c3-.14,5.15-1.27,5.82-3.67.53-1.93.29-5.16-1-6.28a49.87,49.87,0,0,0-10.88-7.08,71.4,71.4,0,0,0-12-4.54c-10.89-3.14-16.49-11.24-20.5-21-3.08-7.54-6.86-14.83-9.34-22.55a283.43,283.43,0,0,1-8.48-32c-2.22-11.2-7-20.92-13.66-30-3.3-4.52-6.68-9-10-13.51-6.08-8.33-8.56-17.9-9.5-28-.44-4.74-3.3-7.59-8-7.47-8,.21-16,.83-24,.93-14.23.17-26.51-5.35-36.88-14.58-7.77-6.91-8.37-16.53-5.47-25.83,4.75-15.24,14.84-25.7,30.35-30.54a109.52,109.52,0,0,0,12-4c7.75-3.46,12.59-9.32,14.07-17.92,1.35-7.87,3.77-15.55,11.52-19.36,4.42-2.16,9.54-3,14.43-4.1,12.55-2.73,22.81-9.37,32-18,10.35-9.77,21.41-18.53,35-23.48a101.15,101.15,0,0,1,29-6c5.34-.3,10.75-1.4,16-.85,18,1.88,36.08,3.6,52.53,12.3,4.48,2.37,8.29,5.17,11,9.54a118.49,118.49,0,0,0,24.34,27.65c8.75,7.46,12.85,17.76,13.09,29.35.23,10.69-.83,21.48,2.09,32a75.92,75.92,0,0,0,4.49,12c3.58,7.62,9.76,12.1,17.93,14.05,4.05,1,8.05,2.19,12,3.49,8.93,2.94,13.56,9.12,13.45,18.47-.1,8.83-.55,17.67-1,26.49-.34,7.27,2.75,12.56,9,16,8.49,4.61,16.46,9.59,22.08,17.95,6.37,9.45,17,13.51,26.43,19,6.49,3.8,12.72,7.53,16.55,14.5,4.44,8.09,4.73,16.39,2.89,25-.69,3.2-1.91,6.3-2.38,9.52a7.47,7.47,0,0,0,1.1,5.32c.58.72,3.29.21,4.77-.4,9.38-3.88,18.86-7.6,28-12.06,5.34-2.63,10.13-6.44,15-9.89,9.38-6.6,18.42-13.71,28.09-19.85,8-5.12,12-12.42,14.45-21.11,2.15-7.55,3.93-15.32,7.14-22.42,3.71-8.19,8.64-15.85,13.36-23.55,8.51-13.9,7.17-27.83-2.11-40.46a160.38,160.38,0,0,0-15-18c-8.46-8.59-12.82-19.44-17.26-30.14-4.24-10.2-9.72-19.34-18.23-26.32a37,37,0,0,0-12.45-7c-18-5.38-27.45-18.4-33.5-35.12-6.28-17.35-15.54-33.13-26.39-48-5.18-7.1-12.37-10.47-20.54-12.47-12.68-3.11-25.36-6.22-37-12.47-9.45-5.08-18.93-10.12-28.5-15a121.41,121.41,0,0,0-14-6c-11.36-4-21-10.76-30.53-18a144.44,144.44,0,0,0-17-11C407.94,19.93,399.06,14,395.63,2.73a5.3,5.3,0,0,1,0-1.49" transform="translate(1.26 -0.74)"/><path class="cls-2" d="M416.11,999.43c10.89-15,24.65-26.95,40.52-36.43,4.14-2.47,8.11-5.07,9.82-9.61,1-2.53,1.58-6.23.41-8.31a51.93,51.93,0,0,0-9.32-11.56c-10.41-10.08-17.64-21.65-17.87-36.56-.09-5.82-.35-11.91,1.13-17.44,2.93-10.89,13.06-15.78,24.32-13.7,4.83.9,10,.46,15,.08,7.52-.56,15-2.09,22.51-2.32,13.15-.39,26.32-.29,39.48-.06,15.78.29,28.43-5.24,37.52-18.52,10.69-15.59,21.39-31.19,32.55-46.44,6.14-8.38,13.43-15.91,19.86-24.1a52.94,52.94,0,0,0,11.48-35A42.58,42.58,0,0,0,642,729c-3.87-13.57-9.21-14-21.9-11.85-13.13,2.18-25.74,2.1-38.56-2-9.4-3-19.21-4.86-29-6.58-15.79-2.78-26.07-12.08-31.35-26.62-6-16.58-16.75-29.1-30.59-39.46q-18.14-13.57-36-27.5c-9.17-7.18-12.6-17.31-12.93-28.46-.37-12.32-.29-24.67,0-37,.14-5.68,1.54-11.31,1.84-17,.37-7.19-.49-14.39-3.56-20.93-1.79-3.83-4.83-7.08-7.37-10.55-6.31-8.62-15.17-12.9-25.49-13.38-14.79-.7-29.38.43-43,7.33-11.43,5.77-18.75,14.9-23.49,26.53-5.73,14-11.5,28.06-17.52,42-3.44,7.94-9.2,14.22-16,19.5-7.6,5.92-15.22,11.81-23,17.48-11.91,8.69-19,20.79-24.41,34.05a86.26,86.26,0,0,1-16.51,26,258,258,0,0,0-17,20c-10.41,14.08-23.69,24.77-38,34.52a135.76,135.76,0,0,0-18.45,15c-6.81,6.67-9.94,15.07-10.24,24.88-.46,15,4.14,28.45,10.67,41.48,5.11,10.19,14.4,14,24.95,16,12.39,2.35,24.21-.73,36-3.62,15.85-3.9,31.34-4.63,47.05,1,12.19,4.33,22.95.7,31.95-8.38,7.33-7.39,15.11-14.37,20.53-23.47,4.06-6.83,6.66-14.08,6.91-22,.24-7.33,0-14.67.1-22a53.42,53.42,0,0,1,1-9c1.84-9.43,8.82-12,16-12.48,13.64-.83,26.5,3.24,39.49,6.48,8.66,2.16,17.22,5,26,6.31a208.13,208.13,0,0,0,30.46,2c13.49,0,16.51,6.86,16.85,16.64.17,5-1,10-1.89,15-1.37,8-3,16-4.47,24-2.83,15-9.74,28.33-18.06,40.94a22.41,22.41,0,0,1-6.48,6.46c-10.87,6.86-21.68,13.92-33,19.89-7,3.67-14.86,5.66-22.41,8.15s-15.85,3.9-21.49,10.53c-6.92,8.15-8.67,17.69-7.48,28,1.58,13.71,5.33,26.89,9.46,40,2.67,8.47,6.74,16.24,10.85,24.07,3.18,6.06,6.09,12.78,6.81,19.45.68,6.31-1.64,12.95-2.64,19.45" transform="translate(1.26 -0.74)"/><path class="cls-2" d="M314.14,999.43c3.17-6.33,6.74-12.5,9.37-19,2.3-5.69,5.18-10.74,9.61-15,2.56-2.43,5.14-4.87,7.48-7.51a27,27,0,0,0,7.18-18c.38-13.84-3.54-26.8-6.57-40-2.9-12.66-3.88-25.54-1.56-38.46,1.6-8.9,7.66-13.38,16-14.92a177.12,177.12,0,0,1,18-2,52,52,0,0,0,27.44-10.08c8.19-6.08,16.26-12.35,24-19,13.24-11.4,20-26.37,22.51-43.43a77.06,77.06,0,0,0,1-10.5c.13-11.49-2-15.84-13-19.28a370.18,370.18,0,0,0-42.47-10.47c-7.24-1.36-15-.93-22.42,0-8,1-12.69,6.92-14.94,14.33-2,6.72-3.14,13.72-5.13,20.46C344.4,787.39,334.13,806,317,819.84c-13.2,10.66-28.09,11.32-43.39,3.7-8.45-4.21-17.29-8.12-26.95-6.9-8.92,1.12-17.64,3.77-26.52,5.29a152.28,152.28,0,0,1-39,1.87c-12-1-20.25-5.93-25.4-16.34-2.7-5.48-4.68-11.32-7.07-17-5.17-12.17-5-24.8-2.91-37.48a140,140,0,0,1,5-21.46c3.17-9.39,10.07-16.49,18-21.89,16.15-11.06,28.43-25,35.91-43.13,4.13-10,12-16.75,21-21.89,9.8-5.55,17.92-12.68,23.89-22.13,8.68-13.71,19.35-25.64,32.6-34.86,18.78-13.06,29.23-31.37,36-52.56,2.89-9,5.76-18,6.4-27.52a21.56,21.56,0,0,0-8.09-18.38c-13.4-11.28-28.05-20.45-44.86-26.22-20.54-7.06-40.85-6.85-61.55-1-10.63,3-21.78,4.12-32.4.43-8.47-2.95-16.54-7.2-24.51-11.4-9-4.76-18.21-8.83-28.53-9.37-5.32-.27-10.74-.62-16,.08-8.19,1.11-12.2,7.36-15,14.38-4.45,11.22-9.53,21.84-19.95,29.1A48.08,48.08,0,0,0,63.3,495.65c-9.47,12.5-8.27,19.89-.53,30.89C69,535.45,75.72,544,80.32,554c7.32,16,12,32.37,11.35,50a20.57,20.57,0,0,1-9.08,16.81C66.89,631,56.66,645.81,46.27,660.57A44.19,44.19,0,0,1,22.22,678c-7.62,2.29-15.32,4.35-23,6.52" transform="translate(1.26 -0.74)"/><path class="cls-2" d="M297.65,1.24c-3.17,8-6.11,16.09-9.56,24-4.92,11.24-13,20.4-20.44,30-6.15,8-12.19,16.11-18.53,24-5.12,6.33-10.33,12.65-16,18.46-10,10.26-14.89,22.24-13.4,36.55,1.47,14,12.54,19.11,25,18,9.66-.84,17-6,24-12a137.68,137.68,0,0,1,45-25.87c13.75-4.73,26.1-11.42,37-21,6.3-5.56,13.57-9.84,22.42-8.42,4.62.73,9.56,2,13.42,4.52,11.44,7.39,22.28,15.72,33.63,23.26,9.33,6.2,16,14.49,21.5,24,6.45,11.12,13.84,21.73,19.71,33.13,3,5.82,3.84,12.83,5.16,19.39,1.63,8.11,2.19,16.46,4.21,24.45,2.69,10.62,10.61,16.09,20.83,19.11A230.16,230.16,0,0,1,519,242.36c5.62,2.47,10.68,6.48,15.51,10.39s5.86,10.48,3.61,16.42c-1.36,3.59-3,7.25-3.4,11-.87,9,3.08,13.68,12.87,17.47,7.46,2.9,15.15,5.12,21.54,10.45,9.42,7.87,17.22,16.69,19.92,29.06,1.42,6.48,2.12,13.17,4.18,19.43a84.57,84.57,0,0,0,7.93,16.5c3.27,5.51,9,7.65,14.84,4.92,12.62-5.89,25.16-12.22,35-22.43,5.64-5.87,7.48-13.89,9.42-21.46a126.76,126.76,0,0,1,11.17-29.44c9-16.41,4.44-28.17-8.47-38.57-6.15-4.95-13.13-9.31-16.5-16.95-1.94-4.38-3.38-9-5.05-13.48-2.83-7.66-4.82-15.79-8.72-22.87-4.44-8.06-12.62-12.5-20.74-16.67-11.93-6.13-19.79-15.72-24.68-28.37s-9.87-25.56-20.89-34.49c-6.2-5-13.26-9-19.38-14.13-19.16-16-41.05-27.92-61.65-41.75-9-6.06-19.45-9.62-30.35-11.83-9.38-1.9-18.62-5.31-25.43-12.42C421,44,410.15,39.75,398.11,37.73c-19.2-3.21-29.63-20.6-28.49-36.49" transform="translate(1.26 -0.74)"/><path class="cls-2" d="M603.55,999.93c8-12.52,11.49-26.57,14.05-41,1.39-7.82,3.42-15.47,8.42-22a56,56,0,0,0,11.68-32.46c.23-5.54,2-11.05,3.39-16.49,2-8,7.9-12.26,15.45-14.5,10.75-3.18,21.88-5.43,30.5-13.49,4.4-4.1,9.07-7.93,13.46-12,5.39-5,11.78-7,19-7.55,10.24-.74,20,1.74,29.45,4.73,20.47,6.47,38.42,2.2,54.49-11.21,11-9.23,21.8-18.83,32.49-28.48,6.29-5.67,7.22-12.61,3-21.43-7-14.67-18.26-24.41-34.47-27.41a141.45,141.45,0,0,0-21.47-2c-8.73-.25-15-4.91-18.81-11.69-8.77-15.54-19.77-28.84-34.14-39.43-5.71-4.22-10.93-9.08-16.56-13.42-7.19-5.55-15.54-7.4-24.46-6.49-6.48.66-10.63,4.49-13,10.45-3.47,8.67-4.74,17.77-5.5,27-.95,11.66-1,23.52-3.26,34.93s-8.43,21.66-16.79,30a215.57,215.57,0,0,0-28.53,35.48c-9.35,14.32-19.45,28.14-29.41,42-8.91,12.42-21.13,18.34-36.46,18.06-10.66-.2-21.33-.23-32,0-8.22.19-16.37,1.92-23.42,6.06-12.72,7.46-15.2,15.44-9.11,29.88,2.21,5.24,4.72,10.5,5.9,16,2.93,13.68,1.33,27.1-5.56,39.35-1.89,3.38-5.89,5.84-9.37,8s-7.57,3.5-11.43,5.1a48.25,48.25,0,0,0-19,13.5" transform="translate(1.26 -0.74)"/><path class="cls-2" d="M618.05,1.74c7.06,7,16.86,8.26,25.47,12,17.74,7.81,30,21.75,40.46,37.47,5.29,8,9.43,16.76,15.18,24.35,10,13.19,13.92,28.45,17.4,44.08,2.28,10.21,5.31,20.27,7.36,30.52,2.25,11.25,3.87,22.63,5.56,34,1.57,10.46,5.64,19.32,16.07,23.39,8.92,3.49,15.9,9.52,23,15.59,5.19,4.48,11.12,7.22,18,7.47,11.82.43,23.67.41,35.48,1.11,10.85.64,21.64,2.36,31,8.47,11.27,7.39,16.06,19,19.61,31.41,1.52,5.3,3.2,10.8,6.06,15.43,7.9,12.84,19.39,13.91,28.72,2,7.5-9.58,13.45-20.24,16.14-32.39,4.61-20.84.51-38.68-17-52.57-9-7.13-12-16-4-27.87,3.2-4.71,7.09-8.93,10.42-13.56,5.31-7.38,8.3-15.44,2.89-23.88a48.13,48.13,0,0,0-10.43-11q-15.69-12.61-31.95-24.53c-11.66-8.56-17.89-20.47-20.81-34.07-2.4-11.17-3.74-22.59-5.08-34s-2.07-22.65-3.07-34" transform="translate(1.26 -0.74)"/><path class="cls-2" d="M265.66,1.24c-1.41,11.48-6.68,21.55-12.09,31.44a314.62,314.62,0,0,1-16.49,27c-9.46,13.72-22.42,23.52-37.44,30.47-8,3.71-11.8,1.69-17.87-7.48-6.27-9.45-12.88-18.53-21.06-26.46s-17.79-13.74-29-15.25c-9.36-1.26-19.15-.85-27.86,3.49-3.14,1.56-6.46,5.09-7.35,8.36a91.83,91.83,0,0,0-3.1,30.95c.67,9.38,4,17.76,6.48,26.42,5,17.3,4,34.38-.15,51.52-4.6,19-9,38.08-14.1,57-3,11.12-4.28,22.9-10.44,33a177.72,177.72,0,0,1-13,19c-11.84,14.69-14.8,31.23-12.6,49.57,1.21,10.08,2.21,20.11,6.27,29.43,3.57,8.19,8.27,15.88,11.82,24.07,5.86,13.48,11.83,27,13.13,41.95.63,7.19-1.77,12.15-8.55,15.48-14.58,7.15-28.37,4.94-40.88-4.62-5.28-4-9.63-9.36-14-14.4-4.94-5.64-10.41-10.18-18-11.46" transform="translate(1.26 -0.74)"/><path class="cls-2" d="M997.43,441.1c-12.25,5.44-25.15,7.75-38.48,8.62-7.37.48-14.69,2.09-22,3.42-5.41,1-9.76,4.06-13.49,8q-8.57,8.94-17,18c-6.39,6.87-14.72,10.77-23,14.39-15.88,6.91-30.68,15.67-45.49,24.52-8.44,5-17.21,9.55-26,14a122.82,122.82,0,0,0-28.87,20.64c-11.81,11.26-25.7,19.2-39.48,27.56-8.9,5.39-17,12.24-25,18.89-7.28,6-13.87,12.82-21.1,18.87-13,10.84-12.9,39.17,4,49.56,5.43,3.33,11,6.55,15.93,10.56,8.77,7.17,16.8,15.25,25.64,22.32,10.93,8.72,21.73,17.56,30.36,28.62,6.59,8.46,15.91,11.62,25.58,13.29,16.75,2.89,32.35,8.7,47.45,16.17,7.62,3.78,14.51,2.66,20.55-3,4.76-4.43,9.59-9,15.1-12.31,2.82-1.71,7.22-1.41,10.84-1.13,6.49.5,12.77,4,19.5,1.38,2.85-1.12,6-1.87,8.45-3.56,21-14.3,44.37-23,68.54-29.88a82.69,82.69,0,0,1,8.48-1.54" transform="translate(1.26 -0.74)"/><path class="cls-2" d="M997.93,465.6c-16.4.2-32.53,2-48,8-9.65,3.73-16.64,10.79-22.94,18.54-10.74,13.21-19.28,27.84-27.08,42.93-4.49,8.69-11.08,15.11-20.95,17.53A106.1,106.1,0,0,0,850.45,564c-8.78,5.15-18.58,5.48-28.46,5.62-10,.14-19.94,2-29,6.51-10.51,5.3-20.5,11.66-31.09,16.78-10.15,4.91-20,10.2-28.32,17.75a99.35,99.35,0,0,0-16.39,18.51c-4.44,6.76-4.54,15.18,1.32,21.81,11.57,13.07,24.12,25.22,39.06,34.33,5.78,3.53,12.72,5.71,19.41,7,14.08,2.75,26.34,8.5,37,18.12,11.32,10.2,25.42,10.06,38,2.09,8.07-5.13,14-12.34,20-19.52,3.41-4.07,6.83-8.15,10.51-12,6.2-6.46,8.16-13.75,6.11-22.56-.88-3.79-.54-8-.06-12,.84-6.88,5.24-9.53,11.9-7.46a33.16,33.16,0,0,1,6.5,3c7.2,4.09,14.31,8.35,21.51,12.45A40.83,40.83,0,0,1,946,673c.57,1.21,1.31,2.34,2,3.5,5.68,9.67,14.52,12.53,25,10.92,8.39-1.29,16.67-3.25,25-4.92" transform="translate(1.26 -0.74)"/><path class="cls-2" d="M415.11,1.74c11.74,14.6,27.42,24.49,42.6,34.82,7,4.78,15.1,8.08,22.91,11.6,10.88,4.91,21.83,9.76,33,14,13.44,5.07,26.71,4.81,39.5-2.82,5.54-3.31,11.68-5.61,17.42-8.62a26.07,26.07,0,0,1,13.52-3c3.86.14,6.24,1.8,6.44,5.56.5,9.66.52,19.34,1.1,29,1.18,19.84,2.42,39.65,9.84,58.53,3.16,8,6.55,15.84,13.72,20.79a54.16,54.16,0,0,0,15.42,7c13.93,4.11,27.06,9.11,37.1,20.49,3.93,4.46,9.35,7.71,14.38,11.08,12,8.06,24,2.81,27.42-13.46,2.33-11,.68-22-.92-33-1.51-10.3-2.63-20.66-4.06-31-1.85-13.48-5.85-26-14.38-37.06C683,76.48,677,66.48,670,57.28A54.27,54.27,0,0,0,639,37.37c-4.45-1.07-9.3-.69-14-.59-6.34.12-12.67.94-19,.85-6.57-.09-10.64-5.16-11.49-13.4-.7-6.83-1.3-13.67-2.06-20.49-.08-.71-.94-1.34-1.44-2" transform="translate(1.26 -0.74)"/><path class="cls-2" d="M997.93,455.6c-10.16,1.33-20.34,2.57-30.48,4-15.71,2.23-31,5.19-42.07,18.41-5.58,6.68-12.14,12.53-17.87,19.1-9,10.37-20.42,17.11-33.06,21.9a111.54,111.54,0,0,0-27.93,16.1c-9.29,7.09-19,13-30.49,16.08s-21.32,9.52-31.14,16.19C773.36,575.25,761.16,582.17,749,589c-8.14,4.53-15.86,9.45-22.44,16.09-5.64,5.69-11.66,11-16.91,17.07-8.35,9.58-10.65,18.94-5.43,28.34,2.3,4.14,5.86,7.77,9.42,11,7.44,6.75,15.63,12.69,22.83,19.67A118.25,118.25,0,0,0,767.5,703c11.15,5.38,21.67,11.67,31.06,19.91,7.61,6.68,17.3,9.22,26.92,11.58,14.64,3.59,27-.9,38.55-9.93,7.52-5.9,15.11-12.05,23.55-16.35,14.1-7.18,28.61-12.31,45-4.93,12.18,5.5,25.15,3.83,37.92.31,9-2.49,18.3-4.1,27.46-6.1" transform="translate(1.26 -0.74)"/><path class="cls-2" d="M818.49,999.93c-.55-13,1.23-25.79,3.93-38.5.93-4.41.67-9.07,1.64-13.47,3.09-14,12.39-15.14,21.42-14.48,7,.52,14,1.58,21,1.91,10.15.47,18.77-3.53,26.52-9.89a145.92,145.92,0,0,1,12.49-9c3.73-2.45,8-3.18,12.47-3.12a88.8,88.8,0,0,0,12.49-1c4.92-.65,7.21-6,5.5-12.46a18,18,0,0,0-13.51-13.41,171.11,171.11,0,0,1-54-25.07c-9.09-6.24-18.44-4.9-28.54-2.21-16.63,4.43-33.6,7.56-50.44,11.2-16,3.45-32.25,3.26-48.48,2.95-12.62-.23-23.1,4.28-32,13-3.7,3.63-7.25,7.66-11.59,10.33S688,901.06,683,902.37c-10.07,2.66-15.36,9.4-17.42,19.1-1.09,5.11-1.74,10.31-2.54,15.48a44.91,44.91,0,0,1-10.13,22.39c-8.6,10.11-11.56,22.25-14.35,34.6-.45,2-.68,4-1,6" transform="translate(1.26 -0.74)"/><path class="cls-2" d="M664,1.74c.5.16,1.22.17,1.47.52,9.37,13,19,25.79,28,39,7.87,11.57,15.3,23.46,22.49,35.48,5.2,8.69,6.9,18.65,9.18,28.42,2.9,12.43,6.55,24.69,9.9,37,2.31,8.51,4.75,17,7,25.5,2.57,9.89,8.65,16.9,17,22.57,6.95,4.75,13.55,10.05,20,15.46,10,8.4,21.52,9.68,34,8.6,10.27-.89,20.65-.53,31-.63,7.83-.08,15.67.24,23.49-.13,3.79-.18,5.33-3.47,6-6.89,1.23-6.49,1.68-13.21,3.69-19.43,2.44-7.57,6.11-14.74,9.35-22,1.36-3.06,3.17-5.93,4.44-9,3.13-7.63,1.72-14.41-4.48-20-4.58-4.09-8.89-8.7-14.06-11.89-17.68-10.91-24.95-28-28.82-47.12-2.79-13.74-4.75-27.65-7.09-41.47Q833.73,19.49,831,3.24c-.12-.68-.33-1.34-.5-2" transform="translate(1.26 -0.74)"/><path class="cls-2" d="M38.72,1.24c2.91,9.59,8.9,17.44,14.54,25.46,5,7.12,10.33,14,15.45,21,8,10.93,9.4,23,6.58,36-1.6,7.4-2.44,15-3.57,22.48-.87,5.82,2.14,9.59,6.45,13.05,8.22,6.59,12.39,15.17,12.63,25.93.32,14.26-4.18,27.48-7.52,41a99.14,99.14,0,0,1-14,32.49c-5.22,7.68-7.61,16.39-9.8,25.41-2.07,8.47-6,16.6-9.83,24.5a87.54,87.54,0,0,0-8.92,37.54c-.2,11-.59,22-1,33-.22,6-.64,12-1,18a16.56,16.56,0,0,0,5.45,13.54c6.28,6.05,11.82,12.79,14,21.47,1.53,6.18.92,12.07-3.86,16.05-5.86,4.87-12.89.7-17-4.14-2.55-3-4.36-6.64-6.58-9.93-6.88-10.15-13.92-12.81-26-10a41.66,41.66,0,0,1-5.49.53" transform="translate(1.26 -0.74)"/><path class="cls-2" d="M258.16,999.43c5.6-9.6,14.51-15.86,23-22.46,14.73-11.44,29.73-22.57,44.41-34.07,7.05-5.52,8.72-13.1,8.22-21.95-.66-11.85-5.45-22.59-7.76-34-1.52-7.43-4.5-14.58-5.78-22-2.24-13-11-18.81-22.65-20.25a123.62,123.62,0,0,1-35.9-10.36c-9.56-4.33-19.18-4.47-29.05-2.8-12.53,2.11-25.1,4.19-37.45,7.11a83.63,83.63,0,0,0-19,7.46c-6.9,3.58-9.36,12.79-8.18,20.88,1.7,11.58,2.81,23.26.64,35-1.8,9.8-2.81,19.78-5.14,29.46-4.39,18.22-13,33.93-28.83,45.08-8.72,6.14-16.51,13.38-21,23.42" transform="translate(1.26 -0.74)"/><path class="cls-2" d="M997.93,870.47c-4-3.66-8.19-7.14-11.95-11-6.07-6.32-13.4-8.89-22-9a93.71,93.71,0,0,0-25.5,3c-21.61,5.7-40.05-.53-56-15.48-5.54-5.22-11.46-9.57-19-11.52-10.26-2.65-19,.94-27.5,6-10.5,6.32-20.75,13.1-31.55,18.88a83,83,0,0,1-44.42,10c-8.19-.47-16.31-2.19-24.5-2.83-10.08-.78-20.26.22-28.37,6.57-11.24,8.82-23.1,16.16-36.6,20.86-10.9,3.8-16.87,11.79-18.46,23-2.22,15.68-7.13,30.19-15.9,43.57-5.14,7.84-6.87,17.19-8.74,26.38-1.45,7.11-3.89,14-5.89,21" transform="translate(1.26 -0.74)"/><path class="cls-2" d="M806.49,999.93c.67-11,1.78-22,1.84-33,0-6.82-1.55-13.66-2.33-20.49-.56-5-1.39-10-1.42-15,0-7,6.32-14.08,14.43-15.9a109.45,109.45,0,0,1,16-2c7.48-.54,15.06-.17,22.47-1.19,9.11-1.26,12.8-8.45,7.93-17.31-4.24-7.7-11.52-11.54-19.9-13.57-8.69-2.11-17-.08-25.52,1.43a149.24,149.24,0,0,1-22.48,2.48c-15.82.38-31.66-.17-47.48.23-9.38.23-18.55,2.13-25.48,9.4-8.09,8.47-9.68,18.84-8.52,30,1.45,13.82.67,27.41-4.51,40.48-4,10.15-9.23,19.81-18.6,25.81-6,3.84-13.19,5.9-19.89,8.63-.83.33-2-.11-3-.2" transform="translate(1.26 -0.74)"/><path class="cls-2" d="M230.67,999.93c1.5-3.83,2.69-7.82,4.56-11.46,4.3-8.43,8.9-16.71,13.44-25,5.38-9.87,13.84-14,25-15.21a61.73,61.73,0,0,0,40-20.31A16.4,16.4,0,0,0,317,911c-4.85-13.83-9.8-27.71-16.09-40.92-4-8.37-13.23-11.29-21.76-13.52-16.35-4.25-33-7.12-50-6a86.51,86.51,0,0,0-17,2.54c-11.23,3.06-16.86,11.82-18.88,22.41C189,898.17,179.26,919.05,172.71,941c-4,13.48-9.2,26.44-16.56,38.46a37.27,37.27,0,0,1-4.48,5.5c-4.45,4.88-9,9.68-13.48,14.51" transform="translate(1.26 -0.74)"/><path class="cls-2" d="M-.76,834.48c7.33-1.16,14.66-2.3,22-3.5,13.74-2.25,27.53-4.61,41.47-3.31,5.44.51,10.87,2.71,16,4.91,10,4.29,19,10.51,30,12.45,7.58,1.34,15,1.83,22.52-.5,10.37-3.2,12-11.16,9.89-18.52-3-10.43-6.57-20.69-9.9-31-3.24-10-2.95-20.16-1.62-30.51,1.5-11.6,2.47-23.3,3-35,.49-10.59-6.4-16.53-16.85-18.21-10.78-1.74-20.76.58-30.47,3.9-12.45,4.27-23.32,1.3-34-4.69A29.08,29.08,0,0,1,45.76,707c-12.13-11-25.82-10-40-5.43-2.05.66-4,1.64-6,2.47" transform="translate(1.26 -0.74)"/><path class="cls-2" d="M19.23,1.74C23.9,8.4,29,14.82,33.13,21.79c6.36,10.61,12.2,21.54,18.06,32.45,5.36,10,4,20.16.6,30.49-3,9-6.49,18.16-7.77,27.51-1.3,9.53,3,17.73,11.69,23,4.87,2.93,9.78,5.83,14.48,9,5.19,3.54,7.43,8.86,7.48,15,.13,15.38-3,30-12.56,42.4-3.34,4.34-7.89,7.76-11.9,11.57-.43.41-1,.64-1.49,1-6.82,5.53-11.2,11.91-10.13,21.5,1.42,12.62-2,24.83-4.93,37-2.41,10.05-3.32,20.22-4.06,30.5-.78,10.87-1.17,22.07-4.2,32.4C24,350.43,15,362.4-.76,367.62" transform="translate(1.26 -0.74)"/><path class="cls-2" d="M689.53,1.24c3.5,5.83,7,11.69,10.51,17.48,4.11,6.7,8.19,13.42,12.51,20,5.2,7.92,10.36,15.89,16,23.46a42.51,42.51,0,0,1,9.07,25c.33,10.62,1.06,21.32,4.84,31.5,4.56,12.3,8.87,24.7,13.57,37a27.81,27.81,0,0,0,11.43,13.52c4.49,2.86,9.57,3,14.48,2.33,3.26-.45,4.68-3.57,5.57-6.82,2.77-10.08,4.86-20.34,10.34-29.57,3.79-6.37,9.25-10.29,15.6-13.43,3-1.49,6.07-2.87,9-4.53,5.37-3.07,8.67-7.59,9-14,.32-5.84,1.2-11.7.85-17.49-.41-7-1.83-14-2.86-21-2.11-14.24-4.11-28.56-9.65-41.92-2.38-5.73-6.5-10.74-9.84-16.06-1.16-1.85-2.33-3.67-3.5-5.5" transform="translate(1.26 -0.74)"/><path class="cls-2" d="M572.06,999.43c6.17-5.83,12.46-11.53,18.46-17.53,6.57-6.56,8.15-15.13,9.07-23.95.85-8.18,1.93-16.34,3-24.5,1.2-9.38,7.84-16.25,11.39-24.53,3.62-8.47,4.24-17.31.08-25.94-2.26-4.68-4.11-5.4-8.45-3a75.22,75.22,0,0,0-10.48,7c-5.9,4.81-12.85,6.34-20,6.35-13.49,0-27-.67-40.49-.84a73.19,73.19,0,0,0-12,1c-6.57,1-12.48,6.52-13.37,13a24,24,0,0,0,1,9.46c3.16,11.26,2.84,22.53,1.54,34-1.06,9.46-1.66,19,.71,28.52,1,4.08.38,8.64.1,12.95-.21,3.31-4.86,7-8.43,7-4.16.05-8.34-.14-12.49.06-3.18.16-6.33.79-9.5,1.2" transform="translate(1.26 -0.74)"/><path class="cls-2" d="M65.72,999.93c-1.84-3.16-3.49-6.45-5.54-9.47-4-5.93-7.71-11.44-5.65-19.57,3-12,8.43-17.79,20.69-18.33,6.63-.29,13.33.92,20,.82,17.33-.27,33.82-3,43.88-19.49a30.78,30.78,0,0,0,4-11.45c1.62-11.59,1.36-23.18-3.94-33.94-5.06-10.29-14.08-15.64-24.94-18-14.62-3.16-29.28-6.22-44-8.92a44.32,44.32,0,0,0-13,0c-7.07.81-11.6,7.1-12.61,14.89-1.43,11-2.56,22.1-7.24,32.57a31.78,31.78,0,0,1-20.69,18.29C11.08,929,5.07,929.45-.76,930.45" transform="translate(1.26 -0.74)"/><path class="cls-2" d="M93.71,999.93c2-16.09,13.3-24.46,25.94-32.08,8.95-5.39,18.31-10.46,24.55-19.4,6-8.58,9.24-18.06,10.62-28.47a73.68,73.68,0,0,0-1.17-28c-4.63-18.45-11.1-25.84-28-30.38-12.17-3.27-24.78-4.93-36.92-8.28-9.72-2.68-18.91-7.26-28.57-10.2-8.74-2.67-17.75-2.08-26.45.89-9.82,3.35-13.44,11-10.55,21,2.09,7.25,4.72,14.56,5.34,22,1.31,15.66-10.76,27.72-27.28,27.48h-2" transform="translate(1.26 -0.74)"/><path class="cls-2" d="M-.26,421.11c13.8,11.3,27,23.49,43.46,31a30.08,30.08,0,0,1,6.49,4c8.44,6.87,9.44,10.78,4,24.43-2,5.12-4.76,10-6.92,15-7.49,17.51-5.3,27.16,7.54,39.9,9.22,9.15,16.05,19.45,19.46,32,2.67,9.84,4.14,19.68.37,29.47a25,25,0,0,1-5.5,8.94c-10.59,10.22-20,21.18-27.54,34-8,13.65-20.47,21.51-36.34,23.59-1.85.24-3.67.65-5.5,1" transform="translate(1.26 -0.74)"/><path class="cls-2" d="M-.76,819.49c4.33,0,8.67-.19,13,0,14.13.74,28-1.56,41.43-5.23a84.22,84.22,0,0,1,38.05-1.83c11.65,2.12,15.4-.67,15.91-12.47.52-12.08.44-24.19-2.93-36a31.9,31.9,0,0,0-11.88-17.13c-11.71-8.94-25.57-13.24-38.6-19.35-4.79-2.25-9.66-4.34-14.49-6.51-11.24-5-22.78-4.79-34.5-2a42.19,42.19,0,0,1-6,.54" transform="translate(1.26 -0.74)"/><path class="cls-2" d="M206.17,999.43A161.19,161.19,0,0,0,223.22,970c3.86-8.6,4.21-17.48,2.89-26.51-1.23-8.37-3-16.67-4.44-25-1.45-8.14,4.26-12.21,9.51-16.48,3.77-3.08,8-5.64,11.39-9.11,4.43-4.59,6.5-8.46-2.4-11.44-9.69-3.24-22.1,3-22.4,16.54-.16,7.28-2.29,13-8.58,17-15.87,10.21-22.45,26.44-27.41,43.49a157.87,157.87,0,0,0-4.91,24c-.54,4.2.81,8.64,1.31,13,.17,1.5.33,3,.5,4.5" transform="translate(1.26 -0.74)"/><path class="cls-2" d="M997.93,473.59c-11.16,1.34-22.58,1.62-33.42,4.26-13.88,3.39-24.38,12.42-32.62,24.19a105,105,0,0,0-17.42,39.53c-3.06,15,5.16,30.07,18,33,5,1.12,10.08,1.72,15,3.11a83.8,83.8,0,0,1,12.5,5c5,2.33,6.39,6.78,6.56,11.94.19,5.84-.23,11.88,1.15,17.45,2.64,10.68,10.12,18.66,17.39,26.46,3.71,4,6.85,9,12.91,10.08" transform="translate(1.26 -0.74)"/><path class="cls-2" d="M-.76,447.6c10.44,4.26,19.38,10.62,27.6,18.38,6.23,5.89,6.94,12.64,5.31,20.09-1.47,6.75-3.45,13.39-5.46,20-2.46,8.13-.66,15.8,3.72,22.38,4.15,6.24,9.73,11.54,14.84,17.1s9.54,11.14,11.49,18.51c2.94,11.12,0,20.84-7.05,29.47-7.32,9-12.59,19.09-17.53,29.48-5.82,12.22-15.07,20.42-28.92,22.55-1.35.2-2.67.65-4,1" transform="translate(1.26 -0.74)"/><path class="cls-2" d="M792.5,999.93c1-9,2.08-18,3-27,1.12-11.24-2.33-21.47-6.92-31.52-3.29-7.19-6.18-14.58-9-22C774.32,905.91,762.88,901.14,749,905c-8.43,2.35-10.77,9.63-12.46,17-5.08,22.09-10,44.22-19.47,65-1.81,3.95-2.74,8.3-4.07,12.46" transform="translate(1.26 -0.74)"/><path class="cls-2" d="M997.93,718.52c-10.92,1.55-21,5.69-30.44,11.08a224.15,224.15,0,0,0-19,12.45c-8.93,6.34-14.85,15.43-20.39,24.53-6.08,10-12,20.24-16.42,31C906,811.37,914.4,820,927.45,822.49c11.17,2.13,22.31,4.46,33.5,6.44,6.28,1.12,12.66,1.7,19,2.56,5.83.8,11.66,1.66,17.49,2.49" transform="translate(1.26 -0.74)"/><path class="cls-2" d="M92.71,1.24c2.36,7.64,5.21,14.94,12,20,5.38,4.05,11.61,5.76,18,6.37C137,29,151,31.4,163.07,39.4c7.94,5.25,14.71,12.23,22.14,18.28a56.36,56.36,0,0,0,10,6.95c9.8,4.91,17.61-.08,24.92-5.95,8.5-6.82,13.45-16.44,18.92-25.51S250.33,15,252.16,4.24c.17-1,.33-2,.5-3" transform="translate(1.26 -0.74)"/><path class="cls-2" d="M877.47,1.24q1,7.24,2,14.49c1.5,11,2.68,22.05,4.58,33,2.06,11.78,9.11,20.93,17.5,28.92a183.72,183.72,0,0,0,18,14.53c8.11,6,17.51,8.07,27.45,7.49,6.18-.36,12.32-1.7,18.49-1.85,12.72-.31,21.35,6.86,25,17.91,1.83,5.61,3.33,11.33,5,17,.66,2.19,1.48,4.34,2.23,6.5" transform="translate(1.26 -0.74)"/><path class="cls-2" d="M983.94,999.43c-4-6.16-8.38-12.12-11.92-18.53C963.86,966.14,951,957.26,936,951c-2.48-1-5-2-7.49-3-7.68-3.26-15.18-2.83-23-.11a170,170,0,0,1-25.49,6.92c-6.48,1.16-13.29.57-20,.69-15.34.28-21,6.07-26.36,19-3.32,8-4.41,16.69-4.13,25.44" transform="translate(1.26 -0.74)"/><path class="cls-2" d="M996.93,242.66c-4.66,2.84-9.38,5.58-14,8.52a73.58,73.58,0,0,0-19.55,17.94c-9,12-16.93,24.63-21.37,39.05-3.4,11-5.18,22.37-2.59,34,1.71,7.66,3.13,15.39,5.07,23,1.81,7.05,7.39,11,14.94,10.61,7.81-.44,15.66,0,23.49-.14,5-.1,10-.62,15-1" transform="translate(1.26 -0.74)"/><path class="cls-2" d="M-.26,181.18c1.33.83,2.56,2,4,2.45,11.63,3.43,23.22,7.09,35,9.94s23.2-7,24.12-19.38c.67-9-3.38-14.94-10.2-19.42-5.92-3.88-12.52-6.73-18.37-10.68a76.21,76.21,0,0,1-14.4-12c-3.53-4-3.8-9.45-2.73-14.86.81-4.1,1.74-8.37,1.43-12.48-.78-10.09-4-12.94-15.37-15a23.09,23.09,0,0,0-4,0" transform="translate(1.26 -0.74)"/><path class="cls-2" d="M-.76,807.49c7.83.67,15.67,2,23.49,1.86a65.12,65.12,0,0,0,45.34-19c9.54-9.37,10.56-19.49,2.58-33.81-5.81-10.43-15.87-15.74-26.45-20a57.85,57.85,0,0,0-33-3.11c-3.92.75-8,.73-12,1.06" transform="translate(1.26 -0.74)"/><path class="cls-2" d="M997.93,484.59c-20.37-3.36-45.11,3-57.54,23-5.09,8.15-9.35,16.41-11,26-1.73,9.94,1.73,17.89,10.58,22.52,5.66,3,11.69,4.13,18,4.52,13.78.85,27-2,40-6" transform="translate(1.26 -0.74)"/><path class="cls-2" d="M438.1,1.74a24.65,24.65,0,0,1,3.47,3,106.57,106.57,0,0,0,51.54,35.88c9.84,3.17,19.83,6.55,30,7.79,12.41,1.52,23.5-3.09,33-11.62,7.48-6.71,9.42-15.42,10.31-24.59.35-3.6-.55-7.32-.89-11" transform="translate(1.26 -0.74)"/><path class="cls-2" d="M891.47,1.24c2.16,8.66,4.25,17.34,6.52,26,2.06,7.86,3.71,15.9,6.6,23.45,5.75,15,15.69,26.56,31.92,30.28a45.41,45.41,0,0,0,19.88-.47,289.22,289.22,0,0,1,37-5.79,39.28,39.28,0,0,0,4.5-1" transform="translate(1.26 -0.74)"/><path class="cls-2" d="M-.76,217.67c15.27,7.43,23.94,20,25.23,36.51,1.21,15.57.56,31.31.12,47-.2,7.19-1.61,14.38-2.91,21.49-2.51,13.64-10.09,23.65-22.44,30" transform="translate(1.26 -0.74)"/><path class="cls-2" d="M109.2,1.74c3.5,3.16,6.71,6.76,10.57,9.39,5.45,3.71,12,4.32,18.43,4.51,10.49.31,21,.55,31,4.19,6.69,2.46,13.06,5.84,19.52,8.92a83.51,83.51,0,0,1,10.46,5.54c5.78,3.83,11.31,2.75,16.5-.62,11.91-7.73,19.13-18.94,23-32.43" transform="translate(1.26 -0.74)"/><path class="cls-2" d="M-.26,793c3.66,1.33,7.24,3,11,3.93,13,3.15,25.06,2.09,36-6.85,14.43-11.73,13.66-30.82-3.61-40a38.63,38.63,0,0,0-27.47-3.68c-5.37,1.23-11,1.43-16.47,2.1" transform="translate(1.26 -0.74)"/><path class="cls-2" d="M953.45,999.93c-1.48-15-9.15-21.59-22.5-24.48-9.4-2-18.65,0-28,.74-8.74.65-17.64-.86-26.47-1.21-5.66-.22-11.49-.9-17,.14-11.55,2.2-16.53,10.49-17,24.81" transform="translate(1.26 -0.74)"/><path class="cls-2" d="M774,999.43c2.33-8.49,4.78-17,7-25.5,2.89-11.23-4.8-26.75-12.48-31.45-9.08-5.56-15.72-4.16-21.34,4.56-3.11,4.83-5,10.51-7.11,15.92a162.11,162.11,0,0,0-9.53,37" transform="translate(1.26 -0.74)"/><path class="cls-2" d="M997.93,729.51c-4.5,1.34-9.45,1.88-13.41,4.15-12,6.9-23.85,14.39-31.46,26.41-5.13,8.1-8.47,16.85-5.21,27,2.59,8,8.32,13.1,14.58,18,9.75,7.6,20.85,11.81,33,13.51a11.14,11.14,0,0,1,2.5,1" transform="translate(1.26 -0.74)"/><path class="cls-2" d="M997.93,269.65c-24.24,8.94-38.58,26.41-43.38,51.51-3.09,16.11,9,33.77,24.9,37.4,6.08,1.39,12.32,2.07,18.48,3.07" transform="translate(1.26 -0.74)"/><path class="cls-2" d="M-.76,521.58c13.46,9.35,23.39,21.73,28.67,37.1,1.83,5.31.81,12.05-.36,17.85a116.15,116.15,0,0,1-11.28,31.54c-3.92,7.4-8.73,13.69-17,16.48" transform="translate(1.26 -0.74)"/><path class="cls-2" d="M462.1,1.74c.5.33,1.21.55,1.46,1,8.39,15.62,21.94,23.17,39,26.13a46.39,46.39,0,0,0,26.49-2.71c6-2.51,8.14-7.84,8.49-13.94.2-3.65,0-7.33,0-11" transform="translate(1.26 -0.74)"/><path class="cls-2" d="M997.93,915.46c-5.5,0-11.08-.59-16.47.17a49.26,49.26,0,0,0-15.43,4.5c-6.64,3.38-7.3,9.33-4,16.26,2.33,4.82,5.66,9.22,8.92,13.52,6.51,8.62,13.16,17.14,20,25.46,1.76,2.14,4.58,3.4,6.91,5.07" transform="translate(1.26 -0.74)"/><path class="cls-2" d="M-.76,251.66c9,4.1,12.13,12.4,13.29,21a221.75,221.75,0,0,1,2,34c-.27,12.65-3.63,24.48-15.3,32" transform="translate(1.26 -0.74)"/><path class="cls-2" d="M926.45,1.24C931.07,15.7,939.86,26.61,955,30c10.28,2.29,21,1.33,31.43-1.29,3.72-.94,7.34-2.29,11-3.46" transform="translate(1.26 -0.74)"/><path class="cls-2" d="M997.93,165.69c-6,2.5-12.63,4.07-17.86,7.68-12.36,8.54-14.56,22.3-3.11,35.29a85,85,0,0,0,20.47,16.51" transform="translate(1.26 -0.74)"/><path class="cls-2" d="M-.26,6.23a64.65,64.65,0,0,0,5.52,5c11.11,8.05,17.52,18.85,18.37,32.53.46,7.33-2.35,13.4-9.91,15.94C9,61.26,4.07,62.38-.76,63.72" transform="translate(1.26 -0.74)"/><path class="cls-2" d="M997.43,292.15c-8.37,4-16,8.55-20.6,17.44-7.32,14.26-3.49,29.64,12.63,36,2.68,1.05,5.64,1.38,8.47,2.05" transform="translate(1.26 -0.74)"/><path class="cls-2" d="M997.93,744.51c-11,5-18.59,13.37-24,24-2.35,4.59-1.74,9.32.16,13.45,4.77,10.36,12.23,18.25,23.36,22" transform="translate(1.26 -0.74)"/><path class="cls-2" d="M-.76,966.44c5.16,0,10.35.32,15.48-.09,4.59-.38,7.61-4.3,8.07-8.4.77-6.88-3-8.74-9.07-9.34-4.76-.47-9.65.51-14.48.84" transform="translate(1.26 -0.74)"/><path class="cls-2" d="M44.72,999.93C43,995.6,39.08,994,35.2,993c-11.93-3.07-24-5.75-36-8.58" transform="translate(1.26 -0.74)"/><path class="cls-2" d="M-.26,546.07c2.33,3.83,5.44,7.4,6.83,11.55,2.94,8.75.53,17.09-3.83,24.94-1,1.83-2,3.67-3,5.5" transform="translate(1.26 -0.74)"/><path class="cls-2" d="M946,1.74c3,2.16,5.74,4.9,9,6.37,5.69,2.52,11.5,1.59,16.94-1.38,3-1.64,6-3.33,9-5" transform="translate(1.26 -0.74)"/><path class="cls-2" d="M486.09,1.74c3.66,2.16,7.13,4.84,11,6.38,6.25,2.46,11.81-.17,16.45-6.88" transform="translate(1.26 -0.74)"/><path class="cls-2" d="M-.26,293.15c.66,3.5,1.93,7,1.85,10.49C1.47,308.82.4,314-.26,319.14" transform="translate(1.26 -0.74)"/><path class="cls-2" d="M381.12,510.58c-13.52,3.23-22.23,12.33-28.38,24.05a103.77,103.77,0,0,0-8.46,20.48c-4.57,16.57-14.41,28.68-28.57,38.06-8.89,5.89-17.21,12.7-25.52,19.43-9,7.3-13.53,17.31-16.08,28.43-2.47,10.72-5.17,21.35-4.5,32.5.32,5.23,2.8,7.84,8,8,10.24.34,18.3-4.62,26-10.52,3.5-2.67,6.81-5.65,10.54-7.93,8.19-5,15.32-1,19.44,4.44,1.58,2.11,3.47,4.14,4.44,6.52,4.62,11.4,13.37,17.93,24.55,22,18.21,6.62,36.22,13.89,55.5,17,15.82,2.52,29.28-1.4,40.08-13.91a200,200,0,0,1,19-19c6.73-6,8-10.57,1.79-17.47-5.55-6.21-12.14-11.51-18.38-17.1-10.84-9.72-20.84-20.24-27.87-33.06-4.91-8.94-5.27-18.6-4.45-29,1.25-15.78,1.18-32.29-11.79-44.3-6.8-6.3-13-12.8-17.91-20.61-3.85-6.1-9.67-8.78-16.94-8" transform="translate(1.26 -0.74)"/><path class="cls-2" d="M643,72.71c-5.16,1.17-10.41,2.06-15.48,3.57-8.17,2.44-13,7.83-15.15,16.39A74.08,74.08,0,0,0,613,132.2c3.41,11.92,11.3,19.5,23.05,22.35,11,2.66,22.26,4.36,33.46,6.06,6.93,1,15.5-5.39,18-12.92,6.43-19.61,2.72-37.28-10.51-52.95-4-4.68-8.35-9-12.45-13.54-5.65-6.26-13-8.2-21-8.49" transform="translate(1.26 -0.74)"/><path class="cls-2" d="M131.2,75.71c-4.44,1.91-5.49,5.44-5.6,10a52.33,52.33,0,0,0,4.15,21,16.62,16.62,0,0,0,3,4.5c1.88,2.16,4.14,2.23,5.93,0a31.08,31.08,0,0,0,7.07-18.46c.22-5.28-.8-9.7-4.91-13.63-2.81-2.69-5.53-3.74-9.12-3.37" transform="translate(1.26 -0.74)"/><path class="cls-2" d="M392.12,561.57c-8.83,2.06-15.2,8-22.05,13.42-11.79,9.26-24.06,17.91-35.87,27.14a104.9,104.9,0,0,0-13,12.48c-4.34,4.8-3.41,10.89,2,14.39a131.51,131.51,0,0,0,14.5,8.47c9.5,4.57,14.5,12.58,17.38,22.09s6.59,18.15,15.57,23.47c13.73,8.14,28,14.45,44.49,13.56,8-.43,14.08-3.71,16.88-11.11a68.28,68.28,0,0,0,4.4-32.42c-1.28-10.37-7-19.23-13.27-27.52-4.74-6.24-9.33-12.79-10.81-20.52-1-5.31-.26-11-.18-16.46.07-4.34,1.06-8.8.33-13-1.66-9.39-8.47-15.31-17.35-14a17.22,17.22,0,0,1-2.49,0" transform="translate(1.26 -0.74)"/><path class="cls-2" d="M550.57,587.06c-6.16,3.61-7.77,8.15-4.42,15,3.44,7,7.66,13.38,14.34,18.15,10.62,7.58,20.74,15.88,31.07,23.88,4.72,3.66,10.09,5.71,16,4.41,8-1.76,10.68-12.42,9.65-18.43-1.91-11.21-9.18-18.14-17.61-24.49-11.62-8.74-24.8-13.56-39-16-3.21-.56-6.34-1.63-9.5-2.46" transform="translate(1.26 -0.74)"/><path class="cls-2" d="M805,587.56c-15.07,2.67-28.7,9.41-42.41,15.65-11.37,5.17-22.28,11.43-30.1,21.81-5.78,7.69-7.63,16.58-.45,25.51,10,12.46,21.09,23.74,37,28.4a100.88,100.88,0,0,0,19,3.49c10.23,1,19.35,4.87,28.51,9A64.58,64.58,0,0,0,831,696.39c9,1.68,14.62-4.4,19.35-10.45,8.95-11.47,14.55-24.63,14-39.39-.5-12.38-2.16-24.65-9.28-35.54-8.39-12.82-20.29-19.87-35.07-22.38-4.75-.8-9.65-.74-14.48-1.07" transform="translate(1.26 -0.74)"/><path class="cls-2" d="M902,589.56c-3.54,1.56-5.94,4.09-3.9,7.94,2.57,4.88,9.29,7.41,12.91,5.56,2.69-1.37,3-3.34,2-6a10.7,10.7,0,0,0-10.53-7.48" transform="translate(1.26 -0.74)"/><path class="cls-2" d="M790,606.55c-7.34,2-14.81,3.59-22,6.11-7.6,2.69-14.77,6.51-20.52,12.4-9,9.28-8.89,16.7-1.4,26.39C755,663,766.84,669.71,782,668.5c11.79-1,23.25,1,34.46,4.13,14,3.86,25.24-4.06,28.85-17.64,5.82-21.92-7.77-42.13-29.8-46.56-8.34-1.67-16.63-1.93-25-1.88" transform="translate(1.26 -0.74)"/><path class="cls-2" d="M770,629.55c-1,.5-2,1-3,1.49-4.35,2-7.91,4.77-7.39,10,.46,4.57,4.22,7.26,8,8.86,4.25,1.81,8.45.88,12-2.8,5.7-6,5.24-13.84-1.61-16.92-2.14-1-4.94-.46-7.44-.62" transform="translate(1.26 -0.74)"/><path class="cls-2" d="M397.12,645.54c-5.53,3.51-9.77,7.77-9.54,15,.12,3.66,1.69,6.36,5.06,7.4,3.21,1,6.47,1.38,9.53-1.35,5-4.49,7-15.67.41-19.5-1.46-.85-3.3-1.05-5-1.55" transform="translate(1.26 -0.74)"/><path class="cls-2" d="M454.1,86.71c-11,3.13-11.94,10.52-7.74,19.37,4.9,10.35,11.54,19.91,17.8,29.58,5.22,8.08,11.67,15.58,12.84,25.54.95,8.11.79,16.35,1.69,24.47a92.65,92.65,0,0,0,3.5,17c2.7,8.74,9.86,13.46,17.94,15.87,14.16,4.23,28.51,8,43,11,8.28,1.71,17,1.39,25.45,2.23,6.19.61,12.32,1.76,18.5,2.41,4.14.42,8.44,1,12.45.32,2.55-.44,5.91-2.67,6.71-4.89s-.2-6.16-1.82-8.26A167.47,167.47,0,0,0,591,206.7c-6.66-6.78-9.69-15.46-12.95-24-2.27-6-4.3-12-6.53-18-4-10.72-12.25-17.34-22-22.5a245.9,245.9,0,0,1-52.49-37.48c-8.93-8.3-19-14.69-31-17.4-3.68-.83-7.64-.43-11.47-.6" transform="translate(1.26 -0.74)"/><path class="cls-2" d="M641.54,98.21c-9.73,3.56-13.95,11-12,22,2.87,15.81,21.51,23.47,33.46,17,4.22-2.28,8.08-10,6.41-14.47-4.8-12.88-13.2-22-27.41-24.52" transform="translate(1.26 -0.74)"/><path class="cls-2" d="M701,700.52c-13.5,2.39-17.93,13.64-17.4,24.49.35,7.19.81,14.53,2.58,21.46,3.1,12.13.44,22.28-8.19,31q-14.89,15.09-30,30c-6.3,6.26-9.76,14-11.39,22.52-2.15,11.18,4.78,19.87,16.38,22.56,13.1,3,22.47-2.53,31.08-11.51,6.11-6.37,12.26-13.08,19.57-17.84,12.29-8,25.42-5.8,38.38-.31,7,3,14.32,5,21.45,7.61,6.06,2.21,11.79.79,17-2.11,13.14-7.4,23.31-18,31-30.93,7.82-13.13-2.19-25.69-15.46-25.89-7-.1-14,.76-21,.88-10,.17-15.75-4-19.51-13.45-4.38-11-8.45-22.16-16-31.46a97.66,97.66,0,0,0-27-22.94c-3.33-1.92-7.28-2.75-11-4.09" transform="translate(1.26 -0.74)"/><path class="cls-2" d="M256.16,701.52c-11.45,2.52-21.11,9.09-31.48,14-9.07,4.32-18.25,8.55-26.91,13.62-4.7,2.75-8.67,6.93-12.54,10.88-7.69,7.86-5.58,18-5.39,27.44.1,4.85,1.6,9.73,2.89,14.49,3.12,11.57,10.18,17.83,22.42,19.65,11.57,1.71,22.48-1.38,33.48-3.34,12-2.14,23.79-3.52,36-2,12,1.52,22.93-1.24,31.54-10.79,5.22-5.79,10.28-11.47,14.07-18.47,8.54-15.77,1.62-42.83-22.14-48.54-10.86-2.62-21.18-6.13-30.13-13.33-2.9-2.34-7.52-2.52-11.35-3.69" transform="translate(1.26 -0.74)"/><path class="cls-2" d="M503.08,707.52c-8,3.37-11.62,10.33-13.35,18-2.25,10-2.89,20.43-5.26,30.43-4.71,19.82-6.93,40.24-14,59.48-2.3,6.3-2.06,12.65-1.81,19,.22,5.55,8.27,12,15.4,11.88,14.88-.33,29,3.91,43.49,6.08,23.07,3.45,34.37.44,47.44-19,8.54-12.69,16.46-25.8,25.13-38.4a235.5,235.5,0,0,1,17-21.48A36.29,36.29,0,0,0,625.48,756c1.43-7.5-4.65-14.32-12.93-14.4-6-.06-12.13-.07-18,1.08-8.38,1.66-15.93-1-22.39-4.88-18.37-11-38.12-19.13-57.2-28.61-3.27-1.63-7.58-1.16-11.42-1.66" transform="translate(1.26 -0.74)"/><path class="cls-2" d="M136.19,130.7c-5.67,2.5-7.31,8-9.46,13a119.15,119.15,0,0,0-8.89,36c-1.15,12.22,3.87,23,10.4,32.95a39.07,39.07,0,0,0,5.49,6.49,9.78,9.78,0,0,0,12.43,1c11.4-8,23.75-14.39,36-21.06,11.48-6.28,11.84-19.56,2.45-28.77-8.33-8.17-17.53-15.46-26.39-23.09-5.29-4.55-10.6-9.08-16-13.46a35.34,35.34,0,0,0-5.47-3" transform="translate(1.26 -0.74)"/><path class="cls-2" d="M512.08,152.69c-8.52,2.73-13,9.72-16.3,17.08-2.54,5.65-4.4,11.84-3.73,18.41,1.05,10.19,6.8,16.34,16,20,13.1,5.25,26.37,6.95,40,2.43a16.85,16.85,0,0,0,11.46-16.46c-.1-4.84,0-9.82-1.07-14.47C554.84,164.27,543,157.47,529,153.85c-5.23-1.35-10.95-.83-16.45-1.16" transform="translate(1.26 -0.74)"/><path class="cls-2" d="M710,726.52c-4.12,1.37-4.73,4.63-3.42,8,3.55,9,8,17.57,15,24.43,1.35,1.33,4.16,2.36,5.85,1.9,3.25-.9,4.45-4.36,3.93-7.28-2.07-11.64-7.78-23.38-20.87-27" transform="translate(1.26 -0.74)"/><path class="cls-2" d="M520.08,176.68a14.12,14.12,0,0,0-2.49,1c-5.61,3.77-7.82,9.78-5,13.48,3.5,4.6,13.61,6.17,18,3,4.16-2.95,3.06-7.19,2.86-11-.15-2.86-5.08-6.28-8.38-6.49-1.5-.1-3,0-4.5,0" transform="translate(1.26 -0.74)"/><path class="cls-2" d="M885,221.67c-5.18,3.6-5.74,4.18-3.39,9.45a139.22,139.22,0,0,0,9.52,17.46c1.17,1.85,4.57,4.29,5.72,3.76a12.86,12.86,0,0,0,6-6.23c5.72-13.84-5-24.7-17.36-24.44" transform="translate(1.26 -0.74)"/><path class="cls-2" d="M246.16,732.51c-7.66,1.34-15.46,2.16-23,4.11-18.18,4.72-25.08,14-25.27,32.39-.12,11.89,5.32,22,21.74,21.37,9-.33,18-1.86,27-2.89,8.5-1,17-2.58,25.5-2.86,15.5-.51,26.88-7,33.45-21.14,5.07-11,1.68-22.62-11.51-26.31-7.57-2.11-15.58-2.83-23.46-3.57s-16-.76-24-1.1" transform="translate(1.26 -0.74)"/><path class="cls-2" d="M523.08,739.51c-5.87,4.06-6.45,5.33-5,11.5s.11,12-2.6,17.45-6.43,10.6-9.36,16.06c-4.67,8.7-6.52,17.89-3,27.44a26.16,26.16,0,0,0,5,8c7.26,8.18,15,16,26,18.93,8.89,2.34,17.14.93,24-6.31,8.52-9,15.24-18.95,19.38-30.57,3.06-8.61,2.07-16.68-3.92-24-5-6.17-9.59-12.73-14.56-18.94a58.82,58.82,0,0,0-24.53-18.37c-3.29-1.29-7.27-.81-10.93-1.15" transform="translate(1.26 -0.74)"/><path class="cls-2" d="M379.12,227.67c-15.51,2.59-22.83,14.42-30,26.48-3.9,6.55-8,13-12,19.51-5.43,8.92-8.21,18.25-6.63,29,2.18,14.92,3.45,30,5.13,45,1,8.83,2.28,17.64,2.88,26.5.32,4.79-.66,9.65-.86,14.49-.4,9.62,3.14,17.29,11.47,22.49,3.17,2,6.26,4.13,9.51,6,9.42,5.35,17.08,12.76,24.49,20.51a21.32,21.32,0,0,0,13.48,7c7.86.83,15-4.89,19-13.52s3.77-17.5,1-26.51c-1.63-5.41-3.46-10.93-3.87-16.49-.59-7.93,2.6-14.87,7.76-21,4.83-5.78,10.48-10.84,13.21-18.39,3.16-8.72,3-17.2,1.41-26.06-2.41-13.45-4.45-27-6.55-40.48-2.06-13.24-3.75-26.62-13.53-37-9.63-10.18-20.83-17.39-35.47-17.51" transform="translate(1.26 -0.74)"/><path class="cls-2" d="M196.18,232.67c-5,1.86-9.67,3.81-12.59,8.94-4.09,7.17-2.27,15.69,5.58,19.57,8.13,4,20.3.93,25-6.52,3.9-6.17,2.12-14-4-18.53a18.69,18.69,0,0,0-13.52-3.46" transform="translate(1.26 -0.74)"/><path class="cls-2" d="M254.16,248.66c-4.32,1.49-7.17,4-7.57,9-.28,3.37-1.5,6.65-1.87,10-.56,5,4.43,9.54,10.43,8.91,11.73-1.23,17.4-7.66,13.37-16.35a20.35,20.35,0,0,0-11.36-10.56c-.84-.32-1.67-.67-2.5-1" transform="translate(1.26 -0.74)"/><path class="cls-2" d="M232.17,752.51a79.11,79.11,0,0,0-8.48,3,12.67,12.67,0,0,0-7,14.44c.93,3.55,6.91,7.75,12,7.37a116.47,116.47,0,0,0,16.49-2.91c8.2-1.84,16.4-3.76,24.48-6.06a24.63,24.63,0,0,0,8.93-4.51c3.72-3.11,2.74-7-1.93-8.82a21.81,21.81,0,0,0-7-1.5c-12.32-.46-24.66-.73-37-1.06" transform="translate(1.26 -0.74)"/><path class="cls-2" d="M23.23,761.51c-3,1.16-6.19,2-9,3.56-7.82,4.41-6.44,10.41-1.49,14.36,5.17,4.13,11,5.61,17.46,2.6,3.84-1.8,7.55-6.56,7.48-10s-4.63-8.41-9-9.48c-1.64-.41-3.33-.68-5-1" transform="translate(1.26 -0.74)"/><path class="cls-2" d="M390.12,783.5c-7.63,2.14-10.89,8.11-13,15-.94,3.15.82,5.43,3,7.5s4.11,1.45,6.53.56c6-2.22,9-6.86,11-12.56,2.4-7,.37-10.07-7-10.5" transform="translate(1.26 -0.74)"/><path class="cls-2" d="M385.12,251.66c-10.65,2.45-17.05,10.27-22.94,18.53-3.64,5.12-7.51,10.3-9.88,16-4.38,10.59-1.89,21,4,30.34,2.72,4.36,7.74,6.12,12.84,5,9.54-2.12,18.35-.58,27,3.54,6.69,3.16,12.69,2,14.86-3a28.78,28.78,0,0,0,2.5-10.45c.31-11,.76-22-.05-33-1.12-15.34-8.55-26.33-27.83-27" transform="translate(1.26 -0.74)"/><path class="cls-2" d="M605.05,268.65c-6.16,1.51-10.36,5.67-14,10.51-4.15,5.57-3.79,12.08,2.08,19.41a44.27,44.27,0,0,0,9.45,8.5c7.91,5.43,12.29,13.33,16.53,21.52a51.46,51.46,0,0,0,7,10c2.45,2.83,8,3.25,10.29.45a38.75,38.75,0,0,0,7-11.94,65,65,0,0,0,3-26.42c-.36-3.74-1.2-8.27-3.57-10.83-5.9-6.38-12.79-11.85-19.29-17.67-5.3-4.75-11.82-3.28-18-3.51" transform="translate(1.26 -0.74)"/><path class="cls-2" d="M120.2,270.65c-10.66,4.17-21.74,7.52-31.89,12.7-14.09,7.18-22.15,17.76-17.51,36.77A371.09,371.09,0,0,0,97.23,394.6c5,10.31,11.89,19.18,22,24.93a122.42,122.42,0,0,0,14.47,6.55c12.46,5.08,25.25,9.45,37.4,15.17,14,6.59,27.71,5.62,41-.35,11.65-5.25,23.3-10.24,35.57-13.83,14.61-4.27,16.25-12.62,14.5-25.95-.81-6.17-2-12.31-2.43-18.5-1.11-16.3-6.27-30.82-18.08-42.47-8.89-8.77-18.11-17.21-26.92-26.06-5.67-5.69-13-8-20-10.95-20-8.37-40.76-15.33-58.9-27.61-4.76-3.23-9.27-5.65-15.08-4.88" transform="translate(1.26 -0.74)"/><path class="cls-2" d="M109.2,294.65c-5.33,1.83-10.78,3.38-16,5.57-6.65,2.81-9.1,8.43-9.59,15.42-.91,13.08,3.42,25.24,6.78,37.43a265,265,0,0,0,12.92,35.48c5.7,13.07,15.2,22.91,28.86,28,16.28,6.11,32.57,12.25,49,17.94,9.34,3.24,18.81,1.21,26.84-3.63,9.86-5.94,19-13.14,28-20.38,7.1-5.71,9.53-13.84,10.74-22.87,2.75-20.62-7.52-35-21.74-47.41-8.22-7.18-16.65-14.47-26-19.88-20.79-12-42.65-21.77-66.86-24.62-7.44-.87-15-.75-22.49-1.08" transform="translate(1.26 -0.74)"/><path class="cls-2" d="M122.2,308.64c-3.17.67-6.31,1.47-9.5,2-12.91,2-16.69,15.67-14.48,25.51,2.77,12.34,5.23,24.78,8.58,37,4.94,17.95,15.34,31.23,33.88,37,12.56,4,25,8.2,37.49,12.49,11.09,3.81,20.89,1.14,29.45-6.09,10.7-9.05,20.37-19,23.54-33.43,1.42-6.46.19-12.63-2.53-18.48-5.65-12.19-15.29-20.85-26-28.49-15.51-11.11-32.41-19.55-51-23.83-9.43-2.17-19.29-2.51-28.95-3.68" transform="translate(1.26 -0.74)"/><path class="cls-2" d="M135.19,323.64c-3.66.83-7.57,1.11-10.94,2.61-7.18,3.19-11.73,12.65-10.49,21.37,1.06,7.54,2.36,15.06,4,22.49,3.28,14.91,12.1,24.16,27.41,27.66,11.17,2.55,22,6.59,33,9.82,10,2.93,18.62.42,25.47-7.49,7.85-9.07,12.79-19.32,8.81-31.41a42.22,42.22,0,0,0-8.95-15.41c-12.49-13.19-27.57-22.71-45.37-27-7.28-1.75-15-1.82-22.46-2.65" transform="translate(1.26 -0.74)"/><path class="cls-2" d="M397.12,870.47c-6.17,1.84-12.52,3.22-18.46,5.6-9.19,3.7-13.28,11.7-13.89,20.9-1.26,18.79,4.52,35.36,17.86,49q8.91,9.09,18,18c6.28,6.18,13.08,7.47,21.43,1.92,3.69-2.46,6.87-5.76,10-8.94,6.12-6.17,5.12-13.55,3-20.95-2.24-7.86-5-15.59-6.87-23.53-1.67-7-2.11-14.38-3.72-21.44a42.12,42.12,0,0,0-5-12.93c-3.88-6.15-10.24-8.06-17.36-7.6-1.49.09-3,0-4.49,0" transform="translate(1.26 -0.74)"/><path class="cls-2" d="M71.21,876.47c-10.86,2.23-14.63,10.39-16.46,20C53.58,902.6,52,908.78,51.87,915c-.28,13.62,5,15.43,14.36,17.4,12.51,2.63,25.3,2.7,38,1.92,8-.5,16.4-1.42,22.06-8.79,2.67-3.48,4.66-7.06,4.42-11.53s.07-9.2-1.11-13.46c-2.93-10.48-10.29-16.58-20.85-19.06-12.18-2.85-24.36-5.58-37-5" transform="translate(1.26 -0.74)"/><path class="cls-2" d="M800,326.64c-6.48,1.72-13,2.77-19.12,6.27-8.13,4.62-14.45,10.78-20.39,17.7-6.3,7.32-12.51,14.9-22.48,17.48a108.21,108.21,0,0,1-12.49,2.49c-8.87,1.21-14.65,6.54-18.42,14.07a58.92,58.92,0,0,1-27.45,27.18c-7.27,3.63-13.57,9.27-20.07,14.33-6.34,4.93-12.19,10.51-18.57,15.39-11.65,8.92-11.55,17.46-6.72,27.43a166.09,166.09,0,0,0,17.47,27.94c4.2,5.53,10.46,9.49,15.78,14.16,8.9,7.83,11.19,18.46,11.9,29.5a225.81,225.81,0,0,1,0,23C679.09,574,688.09,579.86,697,577c21.81-7,41-18.19,55-36.9a140.24,140.24,0,0,1,21.87-23.64c6.84-5.71,12.92-12.39,19.06-18.9a107.3,107.3,0,0,1,24.51-19c8.58-5,17-10.29,23.47-18A62,62,0,0,1,865,443.2c11.84-4.94,15.92-13.95,16.67-26.08.46-7.6.85-15.14-2.4-21.91-2.93-6.1-7.3-11.56-11.35-17.06-7.19-9.77-14-19.92-22.1-28.89-12-13.28-26.6-22.34-45.34-22.62" transform="translate(1.26 -0.74)"/><path class="cls-2" d="M150.19,340.63c-2.67.84-5.35,1.61-8,2.51-6.81,2.34-9.63,9.78-8.41,17.47a16.37,16.37,0,0,0,15.4,14c6.5.26,13,1,19.49.85A26.78,26.78,0,0,0,179.61,373c6.1-3,5.07-12.81,1.07-17.85-7.67-9.66-18.09-13.59-30-14.5" transform="translate(1.26 -0.74)"/><path class="cls-2" d="M801.49,347.13c-16,1.64-22.58,13-27,26.49a34,34,0,0,1-9.41,15.08,14.43,14.43,0,0,1-10.06,4c-5.67.12-11.41.13-17,1.06-8.1,1.36-13.77,6.15-18.16,13.29-5,8.22-11.24,15.71-16.83,23.6-3.12,4.41-6.21,8.87-9,13.51A49.05,49.05,0,0,1,675,462.08c-9.08,5-10.88,10.64-5.95,19.49a46.41,46.41,0,0,0,4.49,6.5c2.73,3.41,5.58,6.74,8.48,10,7.36,8.29,8.57,18.76,10.51,29a156.93,156.93,0,0,0,3.54,16c3.78,12.46,14,12.52,22.39,8.43,9.89-4.84,15.62-13.47,17.9-23.93,2.36-10.8,6.5-20.09,15-27.62,4.28-3.79,7.54-8.93,10.55-13.89,7.22-11.86,16.82-19.59,31.06-21.57s24.56-9.86,33.2-21.22a114.55,114.55,0,0,1,19.93-20c10.49-8.36,7.93-14.73,2.34-22.13-3-4-6.24-7.75-9.48-11.51-5.63-6.53-7.44-14.82-10.41-22.53-3.51-9.11-9.18-15.85-18.59-18.9-2.51-.81-5.31-.74-8-1.07" transform="translate(1.26 -0.74)"/><path class="cls-2" d="M390.12,748.51c-11.9,1.51-18.7,9.2-22.93,19.52-4.61,11.22-9.39,22.43-12.9,34-4.73,15.62,4.23,26.18,20.83,26.55a35.1,35.1,0,0,0,23-7.62c10.27-7.89,19.47-17,25.33-28.56,3-6,4.76-12.8,6-19.44,1.31-6.89-3.76-14.21-11.34-17.94a63.4,63.4,0,0,0-27.48-6.52" transform="translate(1.26 -0.74)"/><path class="cls-2" d="M83.21,894.46c-3.86,1.09-7.56,2.51-8.46,7-1,5.09,1.39,8.47,6.45,10a20.75,20.75,0,0,0,18-2.58c4.39-2.82,4.34-4.74,1.06-8.47-4.45-5.08-10.31-5.92-16.52-6" transform="translate(1.26 -0.74)"/><path class="cls-2" d="M375.62,374.12c-4.87,3.85-6.64,8.79-3.89,12.42,1.38,1.8,3.89,3.75,5.89,3.75,1.5,0,3.51-2.77,4.4-4.72,2.08-4.53-1-10.2-5.9-11.45" transform="translate(1.26 -0.74)"/><path class="cls-2" d="M548.07,911.46c-5.58,1.23-9.73,3.81-11.07,10-1.14,5.26,2.47,13.61,7,16.59a22.42,22.42,0,0,0,19,2.73c5.58-1.57,8.34-6.45,8.51-12.31s-4.24-12.21-10.49-14.39c-4-1.38-8.3-1.77-12.46-2.6" transform="translate(1.26 -0.74)"/><path class="cls-2" d="M504.08,418.61c-5.51,1.33-6,6.49-8,10.51-5.28,11-3.42,21.32,3.52,30.94,1,1.4,2.62,2.37,3.95,3.54,1-1.84,2.43-3.57,2.9-5.53.6-2.56.33-5.32.62-8,.78-7,2.08-14,2.31-21,.12-3.86.19-8.59-4.83-10.49" transform="translate(1.26 -0.74)"/><path class="cls-2" d="M127.2,452.6c-11,1.29-16.67,8.44-20.54,18a61.48,61.48,0,0,1-21.81,27.71c-10.53,7.54-13.76,14.4-6.23,29.34,7.44,14.78,14.89,29.64,20.82,45,4.35,11.31,6.5,23.51,9.15,35.42a54.28,54.28,0,0,1,1,14.46c-.39,7.5,3.77,10.4,10.62,10.87,12,.82,24,1.69,36,.92,17.41-1.13,35-1.22,52.05-6.13,11.91-3.43,22.72-8.54,31.89-16.71,13-11.6,25.64-23.67,38.56-35.4,10.14-9.21,14.95-21.23,17.85-34.05,2-8.84,3.7-17.94,3.92-27,.37-15-7-26.42-19.82-33.93-16.18-9.48-34-12.54-52.45-11.46-6.86.4-13.68,1.81-20.49,2.92-18.23,3-35.45.62-51.52-9a104.24,104.24,0,0,0-15-7.44c-4.29-1.7-9-2.44-13.45-3.61" transform="translate(1.26 -0.74)"/><path class="cls-2" d="M507.08,468.59c-1.16,2.17-2.95,4.22-3.36,6.53a63.4,63.4,0,0,0-1.06,13.47c.56,14.83-2.47,29.13-5.45,43.51a47.79,47.79,0,0,0,.9,23c.64,2.22,1.77,4.3,2.45,6.51,3.22,10.48,6.77,20.89,9.4,31.52,2.32,9.43,7.78,16.91,14.28,23.29,9,8.84,18.51,17.48,29,24.41,13.15,8.7,27.37,15.83,41.37,23.16,10.63,5.58,20.68,2.44,29.39-4.49,20.5-16.32,16.32-44.11-.34-58.52-9.62-8.32-18.59-17.51-24.11-29.37-3.74-8.05-2.42-15.35,3.45-22.05a95.35,95.35,0,0,0,11-14.51c5.5-9.47,1.8-18.66-2.45-27.4-5.81-12-17.33-15.76-29-18.93a100.7,100.7,0,0,0-17-3,32.71,32.71,0,0,0-11,1c-14.19,3.68-25.68-1.91-36.51-10.08-3.51-2.65-7-5.33-10.5-8" transform="translate(1.26 -0.74)"/><path class="cls-2" d="M133.2,470.59c-5.39,1.45-8.48,5.29-11,10-5.2,9.48-10.89,18.63-18.41,26.56C96,515.31,94.49,525,99.28,535c8.63,18.16,13.75,37.51,20,56.48,1.78,5.4,4.63,10.52,7.45,15.5,3.88,6.83,10.65,9.2,17.93,10.54,11.29,2.07,22.12-.8,33-3,12.87-2.66,25.71-5.45,38.49-8.51,13.42-3.21,23.86-11.83,34.46-20,5.23-4,9.94-8.73,15.06-12.92,9.83-8.06,13.73-19.2,15.85-31a146.87,146.87,0,0,0,2-22.47c.52-22.52-11.35-31-29.46-35.81-6.7-1.79-14-2-20.94-2a132.36,132.36,0,0,0-22.48,2,82.84,82.84,0,0,1-39.49-2.16c-9.91-3.06-19.64-6.72-29.53-9.88-2.52-.8-5.31-.73-8-1.07" transform="translate(1.26 -0.74)"/><path class="cls-2" d="M319.14,13.73c-7.71,3.43-11.57,10.48-16,17C297,39.88,291.23,49.38,284.5,58.11c-4.56,5.92-10.86,10.47-15.77,16.17-10.07,11.65-17.69,25-25,38.45a9.9,9.9,0,0,0,.54,10.91c2.86,3.89,7.38,4,11.37,2.45,8.3-3.32,16.34-7.27,24.54-10.88,10-4.38,20-8.66,30-13,8.16-3.56,15.86-7.79,22-14.47,6.72-7.27,13.92-14.1,20.38-21.59,5.7-6.6,5.8-13.14.52-20.37-6.72-9.2-14-18-20.88-27.07-3.27-4.35-7.43-5.67-12.54-5" transform="translate(1.26 -0.74)"/><path class="cls-2" d="M786,34.73c-6.13,2.18-8.77,6.33-8.62,13a158.81,158.81,0,0,1-1,23c-1,7.77-5.12,14.35-9.85,20.52-4.39,5.73-4.32,16.9,0,21,2.84,2.7,5.78,3.71,9,.51.92-.91,2.22-1.51,3-2.53,6.19-8.63,14.72-14.4,23.48-20,6.89-4.44,10-11.18,9.54-19.42-.28-5.17-.26-10.4-1.07-15.49C808.68,44.37,800.8,34,786.5,34.73" transform="translate(1.26 -0.74)"/><path class="cls-2" d="M318.14,58.72c-7.44,2.8-10.45,9.93-14.89,15.58-1.61,2,1.67,4.94,4.89,4.41,4.16-.68,12.77-8.37,13.41-12.51.44-2.82.69-6-2.91-7.48" transform="translate(1.26 -0.74)"/><path class="cls-2" d="M148.19,491.59c-13.92,3.61-19,14.18-21.52,27-2.29,11.87.82,23.35,1.93,35a101.79,101.79,0,0,0,7.55,29.5c3.15,7.64,7.82,14,16.09,15.76a44.94,44.94,0,0,0,16.91,0c10.28-1.88,20.32-5,30.54-7.24,5.23-1.14,10.89-.63,15.94-2.22,18.9-6,35.59-15.49,47-32.39a42.79,42.79,0,0,0,7-21.46,126.65,126.65,0,0,0,0-18.48c-.93-11-7.84-17.16-17.89-20.54-9.73-3.27-19.58-3.25-29.5-1.44-16.37,3-32.7,3.87-49-.52a78,78,0,0,0-24.49-3" transform="translate(1.26 -0.74)"/><path class="cls-2" d="M971.94,499.58c-12.41,2.42-19.81,11-24.78,21.59-2,4.39-3.83,9.52-1.32,15,2,4.39,5.34,6.86,9.62,7.33,14.45,1.59,23.59-4.49,29.43-16.91a41.52,41.52,0,0,0,3.73-17c.15-5.6-4.6-9.41-9.69-10a61,61,0,0,0-6.49,0" transform="translate(1.26 -0.74)"/><path class="cls-2" d="M569.06,504.58c-10,2.16-17.56,9.19-26.47,13.54-4.28,2.09-8.37,4.58-12.51,7-11.4,6.57-16.06,20.37-7,33.49,3.72,5.39,8.72,9,14.43,12.13,3.93,2.15,6.75,1,9.52-1.22a22.38,22.38,0,0,0,4.53-5.45c7.63-11.82,15.52-23.36,26.94-32.07a28.48,28.48,0,0,0,7.46-9c3.39-6.3.95-12.71-5.93-15.82-3.21-1.46-7-1.77-10.45-2.61" transform="translate(1.26 -0.74)"/><path class="cls-2" d="M162.19,508.58c-11.85,2.36-14.27,11.67-14.5,20.5s.4,17.23,3.89,25.53c4.5,10.7,13,15.21,23.61,15.81,11.29.64,22.67.51,34,.06,20.41-.81,42.16-16.08,46.12-37.38,2.73-14.68-9-27.44-23.62-24.51-11.88,2.39-23.78,4.83-36,3.94-4.69-.34-9.32-1.37-14-1.93-6.32-.75-12.66-1.35-19-2" transform="translate(1.26 -0.74)"/><path class="cls-2" d="M392.12,889.47c-13.43,4.62-16,17.67-10.88,30.44,3,7.41,8.92,12.52,16.39,15.51,6.37,2.56,11.56.26,13.39-6.49,2.81-10.33,2.8-20.86-1-30.93-3-7.83-9.82-9.27-17.38-8.53" transform="translate(1.26 -0.74)"/></g></svg>